<?xml version="1.0" encoding="UTF-8" standalone="no"?>
<!-- Created with Inkscape (http://www.inkscape.org/) -->

<svg
   xmlns:dc="http://purl.org/dc/elements/1.1/"
   xmlns:cc="http://creativecommons.org/ns#"
   xmlns:rdf="http://www.w3.org/1999/02/22-rdf-syntax-ns#"
   xmlns:svg="http://www.w3.org/2000/svg"
   xmlns="http://www.w3.org/2000/svg"
   xmlns:sodipodi="http://sodipodi.sourceforge.net/DTD/sodipodi-0.dtd"
   xmlns:inkscape="http://www.inkscape.org/namespaces/inkscape"
   width="439.52805"
   height="1070.7212"
   id="svg6056"
   version="1.1"
   inkscape:version="0.48.4 r9939"
   sodipodi:docname="ff-mr-logo.svg">
  <defs
     id="defs6058" />
  <sodipodi:namedview
     id="base"
     pagecolor="#ffffff"
     bordercolor="#666666"
     borderopacity="1.0"
     inkscape:pageopacity="0.0"
     inkscape:pageshadow="2"
     inkscape:zoom="0.7"
     inkscape:cx="144.59679"
     inkscape:cy="526.77846"
     inkscape:document-units="px"
     inkscape:current-layer="layer1"
     showgrid="false"
     inkscape:window-width="1678"
     inkscape:window-height="1029"
     inkscape:window-x="0"
     inkscape:window-y="0"
     inkscape:window-maximized="0"
     showguides="true"
     inkscape:guide-bbox="true"
     fit-margin-top="0"
     fit-margin-left="0"
     fit-margin-right="0"
     fit-margin-bottom="0">
    <sodipodi:guide
       orientation="0,1"
       position="172.8197,255.49106"
       id="guide3107" />
    <sodipodi:guide
       orientation="1,0"
       position="139.98974,205.48851"
       id="guide3109" />
    <sodipodi:guide
       orientation="0,1"
       position="352.12178,946.43541"
       id="guide3111" />
    <sodipodi:guide
       orientation="1,0"
       position="331.41365,838.85416"
       id="guide3113" />
  </sodipodi:namedview>
  <metadata
     id="metadata6061">
    <rdf:RDF>
      <cc:Work
         rdf:about="">
        <dc:format>image/svg+xml</dc:format>
        <dc:type
           rdf:resource="http://purl.org/dc/dcmitype/StillImage" />
        <dc:title></dc:title>
      </cc:Work>
    </rdf:RDF>
  </metadata>
  <g
     inkscape:label="Ebene 1"
     inkscape:groupmode="layer"
     id="layer1"
     transform="translate(-248.41391,65.913659)">
    <circle
       id="circle3254"
       stroke-miterlimit="4"
       transform="matrix(0,-4.1492038,4.2201615,0,195.41127,806.47581)"
       r="22"
       cy="44"
       cx="74"
       sodipodi:cx="74"
       sodipodi:cy="44"
       sodipodi:rx="22"
       sodipodi:ry="22"
       style="fill:none;stroke:#de2c68;stroke-width:1.06239557;stroke-miterlimit:4;stroke-opacity:1;stroke-dasharray:none"
       d="M 96,44 C 96,56.150264 86.150264,66 74,66 61.849736,66 52,56.150264 52,44 52,31.849736 61.849736,22 74,22 c 12.150264,0 22,9.849736 22,22 z" />
    <circle
       id="circle3252"
       stroke-miterlimit="4"
       transform="matrix(0,-3.8437285,3.9188817,0,212.9514,788.3967)"
       r="22"
       cy="54"
       cx="36"
       sodipodi:cx="36"
       sodipodi:cy="54"
       sodipodi:rx="22"
       sodipodi:ry="22"
       style="fill:none;stroke:#de2c68;stroke-width:1.14544892;stroke-miterlimit:4;stroke-opacity:1;stroke-dasharray:none"
       d="M 58,54 C 58,66.150264 48.150264,76 36,76 23.849736,76 14,66.150264 14,54 14,41.849736 23.849736,32 36,32 c 12.150264,0 22,9.849736 22,22 z" />
    <circle
       id="circle3256"
       stroke-miterlimit="4"
       transform="matrix(0,-4.1181943,4.1585594,0,198.12133,804.57054)"
       r="29"
       cy="44"
       cx="74"
       sodipodi:cx="74"
       sodipodi:cy="44"
       sodipodi:rx="29"
       sodipodi:ry="29"
       style="fill:none;stroke:#de2c68;stroke-width:5.81192684;stroke-miterlimit:4;stroke-opacity:1;stroke-dasharray:none"
       d="M 103,44 C 103,60.016258 90.016258,73 74,73 57.983742,73 45,60.016258 45,44 45,27.983742 57.983742,15 74,15 c 16.016258,0 29,12.983742 29,29 z" />
    <polygon
       id="polygon3258"
       transform="matrix(0,-3.7702453,3.5736683,0,225.79994,787.29905)"
       points="31,44 26,44 30,48 22,48 22,52 30,52 26,56 31,56 37,50 "
       style="fill:#ffcc33;fill-opacity:1" />
    <path
       d="m 621.20339,1004.6183 c -0.539,-0.2204 -1.2854,-1.0798 -1.6966,-1.5169 -1.3428,-1.4188 -2.9579,-3.21361 -3.408,-5.17881 -0.176,-0.7612 -0.2093,-3.1635 -0.6223,-3.7303 -0.339,-0.4631 -0.9965,-0.5667 -1.5133,-0.7205 -1.1965,-0.3593 -1.7281,-0.3612 -2.6393,-1.2706 -1.5596,-1.554 -1.2114,-1.8818 -2.2486,-3.1542 -1.6374,-2.006 -3.5655,-2.9284 -4.0174,-5.7567 -0.1371,-0.8575 0.1,-5.075 0.2704,-5.927 0.2204,-1.1113 0.4668,-0.8761 0.4853,-2.4078 0.017,-1.36325 -0.089,-4.08967 -1.0058,-5.14725 -0.5,-0.57606 -1.2946,-0.77608 -1.9559,-1.11503 -0.9724,-0.50195 -1.9207,-1.16315 -2.7782,-1.83923 -1.6022,-1.26875 -2.0967,-3.49506 -3.521,-1.90034 0,0 -1.8522,0.16671 -1.8522,0.16671 -1.3577,-0.0926 -1.6003,-0.69271 -2.4246,-1.2558 -1.3428,-0.91681 -2.8727,-1.4521 -3.5858,-3.09131 -0.3834,-0.88347 -0.2871,-2.43375 -0.2908,-3.41356 0,0 0,-4.81383 0,-4.81383 0.1963,-1.10946 1.4466,-2.54491 1.567,-3.521 0.07,-0.56126 -0.3168,-1.92815 -0.4242,-2.59308 0,0 0,-3.88962 0,-3.88962 0,0 -5.3991,-0.83718 -5.3991,-0.83718 0,0 -1.8522,-0.45934 -1.8522,-0.45934 0,0 -1.2465,-1.13354 -1.2465,-1.13354 0,0 -0.2371,-2.75603 -0.2371,-2.75603 0,0 -0.3686,-2.77833 -0.3686,-2.77833 0,0 -4.6305,-0.17039 -4.6305,-0.17039 -0.8186,-0.0593 -1.7262,-0.18708 -2.1911,-0.97981 -0.1815,-0.31115 -0.3741,-3.4469 -0.4019,-4.03589 0,0 -2.7783,-0.36305 -2.7783,-0.36305 0,0 -2.0374,0.16856 -2.0374,0.16856 0,0 -2.2227,0 -2.2227,0 -1.4391,-0.0102 -3.2969,-0.47232 -3.2691,-2.21338 0.024,-1.49285 -0.7186,-3.47102 -0.9909,-5.01016 0,0 -2.4078,0 -2.4078,0 0,0 -1.2966,-0.14263 -1.2966,-0.14263 0,0 -1.2965,0.14263 -1.2965,0.14263 0,0 -2.4078,0 -2.4078,0 -0.7687,-0.004 -2.2912,-0.31672 -2.7857,-1.00021 -0.2945,-0.50195 -0.1112,-1.21685 0,-1.7688 0,0 0,-2.39119 0,-2.39119 -1.0521,0.0871 -0.9891,-0.0444 -1.767,0 0,0 -1.5577,0 -1.5577,0 0,0 -2.0393,0.30005 -2.0393,0.30005 0,0 -1.6669,0 -1.6669,0 -0.7224,-0.024 -1.9448,-0.0369 -2.3486,-0.71307 -0.4112,-0.68718 0.02,-1.15209 0.1148,-1.8337 0,0 0,-3.32651 0,-3.32651 0,0 -0.5445,0 -0.5445,0 0,0 0,-1.28174 0,-1.28174 0,0 -2.2227,0 -2.2227,0 0,0 -2.593,0.3501 -2.593,0.3501 0,0 -2.9635,-0.35747 -2.9635,-0.35747 -1.1502,-0.0555 -3.0339,-0.14446 -4.0749,-0.51309 -0.9075,-0.32229 -1.9873,-1.21501 -2.5782,-1.97071 -1.1465,-1.46325 -0.7409,-2.03557 -2.8005,-1.97814 -0.8205,0.0224 -3.8655,0.024 -3.3951,-1.41878 0.4761,-1.4632 2.9376,-0.71123 4.1434,-1.24284 1.454,-0.639 3.1654,-3.43947 4.8472,-4.53599 1.1761,-0.7668 2.2078,-0.4464 3.4876,-0.75753 0,0 -0.5556,-1.11135 -0.5556,-1.11135 0,0 -0.9261,0 -0.9261,0 0.089,-0.49822 0.1963,-1.60955 0.4001,-1.98365 0.3519,-0.64643 1.9281,-2.03556 2.5634,-2.42269 0,0 1.4558,-0.77422 1.4558,-0.77422 0.839,-0.63528 0.6224,-1.80032 1.3929,-2.47639 0.3667,-0.32041 1.2983,-0.28153 1.7818,-0.28895 0,0 4.5786,0 4.5786,0 0.563,0.024 3.4858,-0.30373 3.9025,-0.49637 0.3019,-0.14075 0.4631,-0.3408 0.5927,-0.64458 0.3612,-0.84086 -0.3574,-3.0079 0.7705,-4.00627 0.7483,-0.66309 1.5114,-0.2667 2.3801,-0.2556 1.7207,0.0205 3.4247,-0.0648 5.0972,-0.5223 1.0336,-0.28338 0.3686,-1.56323 1.1484,-2.57269 0.7131,-0.91871 3.9155,-1.50953 5.0527,-1.33729 0.4131,-0.46119 0.7076,-0.35191 1.2966,-0.38524 0,0 3.7322,0 3.7322,0 -0.3908,-1.23725 -0.6835,-3.22838 0,-4.41008 0.2482,-0.36858 2.6338,-2.19486 3.1209,-2.42821 -0.3853,-1.62249 -0.3741,-6.64565 -0.3371,-8.52006 0,0 0,-4.44527 0,-4.44527 -0.3427,-1.7466 -2.3023,-1.82256 -2.8116,-3.51915 -0.7965,-0.0464 -1.4614,-0.12039 -1.4614,-1.11129 0,-0.22599 0.041,-0.45936 0.1685,-0.65016 0.1927,-0.28521 1.504,-1.05017 1.8485,-1.17797 0.665,-0.24819 1.4095,-0.1074 2.3227,-0.80757 1.5743,-1.20948 1.7281,-2.34112 3.0802,-3.03019 1.3002,-0.66309 3.2024,-0.88719 4.599,-1.21869 0,0 4.26,-1.26507 4.26,-1.26507 -0.5186,-1.27985 -1.3743,-2.35784 -2.093,-3.51915 -0.7927,-1.28174 -0.513,-2.51346 -2.7227,-2.96351 -0.1001,-0.28895 -0.1204,-0.43899 -0.3186,-0.70011 -0.3464,-0.45752 -2.4153,-1.55771 -3.3376,-3.37469 -0.5168,-1.02057 -0.7668,-2.59121 -0.4594,-3.70438 0,0 1.2966,-3.33397 1.2966,-3.33397 0.2055,-1.02241 -0.6965,-1.66883 0.2667,-2.95426 0.8131,-1.08347 2.2856,-0.99089 3.6636,-2.41706 -0.3612,-0.42232 -0.2167,-0.99837 -0.426,-1.53361 -0.8205,-2.11335 -1.0557,-0.90576 -1.0557,-3.83777 -1.3948,0.12596 -2.8228,0.91502 -4.2601,0.64275 -2.3004,-0.43532 -3.0746,-2.2319 -4.662,-3.68215 -1.1464,-1.04654 -1.4021,-0.70017 -1.917,-1.39845 0,0 -1.1187,-2.12628 -1.1187,-2.12628 -0.3593,-0.35563 -0.8909,-0.38156 -1.5151,-0.76127 -1.3132,-0.79643 -2.643,-2.1337 -3.1931,-3.59694 -0.6854,-1.82441 0.8408,-3.63029 0.513,-4.81384 -0.3408,-1.22616 -2.2911,-1.78737 -2.3689,-3.34134 -1.2873,-0.64457 -1.9356,-3.10061 -1.5485,-4.44527 0,0 0.9132,-2.03739 0.9132,-2.03739 0.1055,-0.50567 -0.091,-1.10576 -0.1056,-1.66699 -1.1317,-0.52602 -4.6027,-2.30783 -5.2417,-3.16724 -0.4019,-0.54083 -0.8465,-1.89662 -0.9706,-2.57453 -0.091,-0.50011 -0.055,-1.20948 -0.3018,-1.62808 -0.3649,-0.61491 -3.1025,-1.70217 -3.8582,-1.89107 -0.1833,-0.8224 -0.9798,-0.72237 -1.6669,-0.74273 -0.9335,-0.0296 -2.0171,-0.20931 -2.7265,-0.87052 -0.7557,-0.70201 -0.5223,-1.39845 -0.6464,-2.27637 0,0 -0.2926,-1.29654 -0.2926,-1.29654 0,0 -0.2241,-3.33391 -0.2241,-3.33391 0,0 -2.2227,-0.33711 -2.2227,-0.33711 0,0 -1.4817,-0.36674 -1.4817,-0.36674 0,0 -2.7783,-0.31856 -2.7783,-0.31856 0,0 -2.2226,-0.58899 -2.2226,-0.58899 0,0 -2.3764,-0.24451 -2.3764,-0.24451 0,0 -1.5132,0 -1.5132,0 0,0 -0.3705,-2.95981 -0.3705,-2.95981 0,0 -4.0748,-0.29632 -4.0748,-0.29632 0,0 -1.1891,-0.31303 -1.1891,-0.31303 0,0 -5.8492,-0.68717 -5.8492,-0.68717 0,0 0,0.74087 0,0.74087 -1.2206,-0.17409 -0.9391,-0.65383 -1.8596,-0.87052 0,0 -1.4743,-0.11113 -1.4743,-0.11113 0,0 -3.7044,-0.58161 -3.7044,-0.58161 0,0 -1.667,-0.40562 -1.667,-0.40562 -2.0244,-0.40563 -3.3376,-0.43525 -5.3713,-0.43894 -2.1782,-0.004 -2.7246,-0.44082 -5.1862,0 -1.3928,-0.85942 -3.6562,-0.22783 -5.0009,-0.9261 -0.5278,0.42232 -1.1891,0.31298 -1.8522,0.26854 0,0 -1.4817,-0.26117 -1.4817,-0.26117 0,0 -1.8522,0 -1.8522,0 0,0 -1.265,-0.19818 -1.265,-0.19818 0,0 -1.8837,0 -1.8837,0 0,0 -1.4818,-0.17224 -1.4818,-0.17224 0,0 -2.593,0 -2.593,0 0,0 -2.5931,-0.1926 -2.5931,-0.1926 -1.1131,-0.006 -2.4356,-0.0133 -3.5191,-0.2223 -2.1986,-0.42597 -4.3508,-0.19076 -4.1027,-3.11167 0.046,-0.53529 0.063,-0.77237 0.2131,-1.29652 0,0 -5.3714,-0.63159 -5.3714,-0.63159 0,0 -2.4152,-0.30378 -2.4152,-0.30378 0,0 -9.6407,-1.03907 -9.6407,-1.03907 0,0 -2.02073,-0.11482 -2.02073,-0.11482 0,0 -4.26003,-0.65751 -4.26003,-0.65751 0,0 -5.18428,-0.45751 -5.18428,-0.45751 0,0 -8.04405,-1.40953 -8.04405,-1.40953 0,0 -1.40396,-0.0963 -1.40396,-0.0963 0,0 -2.40786,-0.42417 -2.40786,-0.42417 0,0 -5.18612,-0.61859 -5.18612,-0.61859 0,0 -1.85219,0 -1.85219,0 0,0 -6.66788,-0.72979 -6.66788,-0.72979 0,0 -2.79496,-0.20001 -2.79496,-0.20001 0,0 -4.61379,-0.53713 -4.61379,-0.53713 0,0 -2.03741,0 -2.03741,0 0,0 -3.70253,-0.35936 -3.70253,-0.35936 0,0 -4.81754,-0.20002 -4.81754,-0.20002 -0.19447,0.89645 -0.60567,2.08553 -1.66882,2.2393 -0.52046,0.0759 -0.77051,-0.24634 -2.03555,-0.20189 0,0 0.18521,-0.55565 0.18521,-0.55565 -0.77236,-0.52976 -0.56306,-1.22984 -1.33173,-1.55586 -0.96128,-0.40933 -3.6025,0.28894 -4.78049,0.20006 -0.38526,-0.0296 -1.21504,-0.13337 -1.5188,-0.36489 -0.80199,-0.61123 -0.36857,-1.47807 0.41119,-1.82812 0.589,-0.26302 1.73735,-0.31488 2.40413,-0.42228 1.70772,-0.27412 3.2543,-0.78532 5.00092,-0.28894 0.0167,-0.63532 0.0111,-1.19285 0.51862,-1.66141 0.7631,-0.70201 2.0763,-0.44641 2.25967,1.10572 0,0 1.49842,0.45193 1.49842,0.45193 1.12983,0.0852 2.91904,-0.35005 4.05814,-0.52783 0,0 2.03741,-0.16299 2.03741,-0.16299 0,0 3.70438,-0.66124 3.70438,-0.66124 0,0 2.9635,-0.2371 2.9635,-0.2371 0,0 2.22263,-0.42784 2.22263,-0.42784 0,0 1.48174,0 1.48174,0 0,0 3.70438,-0.63717 3.70438,-0.63717 2.23745,-0.37786 4.58417,-0.54638 6.85311,-0.57604 0,0 4.38968,-0.69827 4.38968,-0.69827 0,0 2.64863,0 2.64863,0 1.84849,-0.0555 3.55805,-0.4612 5.3732,-0.72605 0,0 3.14687,-0.26671 3.14687,-0.26671 0,0 2.9635,-0.7131 2.9635,-0.7131 0,0 2.03,0 2.03,0 0,0 1.67623,-0.3519 1.67623,-0.3519 0,0 4.81384,-0.23156 4.81384,-0.23156 0,0 1.29654,-0.27781 1.29654,-0.27781 0,0 1.66697,-0.0982 1.66697,-0.0982 0,0 1.85218,-0.30005 1.85218,-0.30005 0,0 1.66693,-0.12223 1.66693,-0.12223 0,0 4.2601,-0.7668 4.2601,-0.7668 0,0 4.6304,-0.50752 4.6304,-0.50752 0.9354,-0.15189 3.7674,-0.64085 4.3934,-1.17798 0.7705,-0.66494 0.3168,-1.54103 1.3577,-2.06891 0.6464,-0.26485 1.1391,0.0908 1.8262,0 0,0 0.8095,-0.31671 0.8095,-0.31671 0,0 1.9855,-0.42415 1.9855,-0.42415 0,0 3.8896,0 3.8896,0 1.2187,-0.0425 2.1615,-0.31672 3.3339,-0.50195 0.5372,-0.0852 1.1706,-0.0537 1.6503,-0.29264 0,0 1.3132,-1.08537 1.3132,-1.08537 -0.1796,-1.43914 1.2003,-1.88739 2.4079,-1.95776 0,0 3.5191,0.29078 3.5191,0.29078 0,0 2.4079,-0.15929 2.4079,-0.15929 0,0 3.7044,0.18707 3.7044,0.18707 0,0 6.6679,0 6.6679,0 0.7556,0.0649 1.4965,0.37047 2.2226,0.2667 0,0 1.1113,-0.25744 1.1113,-0.25744 0.2593,-0.0408 0.6482,-0.0408 0.8853,-0.14816 0.9632,-0.43526 0.5964,-2.2393 2.0856,-2.58011 0,0 6.103,-0.45193 6.103,-0.45193 2.0096,-0.0102 2.1244,0.20927 4.2619,-0.1908 -1.7985,-2.25224 -1.7633,-2.43006 -2.7154,-5.00091 -0.6205,-1.67624 -0.9909,-2.48749 -0.7464,-4.33781 0.1723,-1.31321 1.0909,-2.00037 1.617,-3.99701 0.1111,-0.42048 0.3945,-0.93537 0.1963,-1.34286 -0.3223,-0.65752 -1.9726,-1.6207 -2.9505,-3.31914 0,0 -1.3466,-3.11724 -1.3466,-3.11724 -0.2834,-0.85385 -0.3797,-1.63176 -1.1169,-2.23372 -1.0575,-0.86127 -3.5302,-1.59473 -4.7916,-2.13556 -1.5447,-0.66124 -2.8283,-1.78184 -3.7062,-3.22467 -0.9446,-1.55212 -0.8613,-4.18225 -0.6038,-5.92702 0.163,-1.11129 0.6723,-2.23742 0.1556,-3.33392 -0.8224,-1.74292 -4.5138,-1.96703 -5.3028,-2.90792 -0.3482,-0.4149 -0.3945,-1.02983 -0.3594,-1.53735 -2.9116,-0.13521 -4.5971,-1.6299 -6.5048,-3.64323 0,0 -0.9632,-0.91499 -0.9632,-0.91499 -0.7094,-0.82236 -0.3667,-1.21317 -1.9781,-2.30784 -1.178,-0.80199 -1.541,-0.42784 -2.7783,-0.576 0,0 -3.8896,-0.93169 -3.8896,-0.93169 -2.4986,-0.83717 -3.9155,-2.77638 -5.4325,-4.77679 -0.6816,-0.89829 -1.415,-1.76882 -1.9263,-2.77824 -0.5593,-1.10207 -1.1835,-1.87261 -1.1502,-3.13207 0.074,-2.74497 -0.1111,-1.96334 0.9724,-4.64716 0.2038,-0.50746 1.1262,-2.42822 1.1336,-2.77827 0.022,-0.87983 -1.467,-3.55439 -2.1171,-4.26004 0.1278,-2.97648 -4.2674,-2.05223 -5.8659,-2.9728 -0.3741,-0.21485 -0.6927,-0.60377 -0.8575,-1.00201 -0.2038,-0.48896 -0.6557,-3.73215 -0.6853,-4.36005 -1.2317,-0.22411 -2.6579,-0.9946 -3.1784,-2.2004 0,0 -0.4482,-2.05964 -0.4482,-2.05964 -0.2093,-0.90755 -0.3945,-1.26134 -0.4482,-2.22263 -1.6281,-0.0741 -4.762,-0.9483 -6.1123,-1.79847 -0.6519,-0.41117 -2.3485,-1.88551 -2.96161,-2.43747 -1.30765,-1.17987 -2.61159,-2.45415 -3.35061,-4.09889 -0.73718,-1.64658 -0.21114,-3.6155 0.45749,-5.18614 0,0 0.76495,-2.02073 0.76495,-2.02073 0.74273,-1.26134 2.82648,-2.63564 4.16368,-3.1654 0,0 0,-0.92607 0,-0.92607 -1.1131,-0.80755 -1.3224,-2.78757 -1.2946,-4.07485 0.032,-1.38728 0.4408,-2.25224 0.5204,-3.14874 0.1612,-1.8114 -1.12426,-1.45393 -2.41894,-2.73751 -0.7316,-0.72604 -1.99479,-2.63381 -2.37635,-3.55991 -0.51306,-1.24282 -0.52787,-2.13554 -1.54102,-3.31725 -1.59288,-1.85774 -2.85052,-0.89461 -4.92867,-0.88904 -1.02611,0.004 -2.60048,-0.48527 -3.44137,-1.06874 -1.1428,-0.79457 -2.46898,-2.03556 -3.15799,-3.25245 0,0 -1.27986,-2.75419 -1.27986,-2.75419 -0.36858,-0.52234 -2.02073,-2.07815 -2.57639,-2.53194 -0.55752,-0.45009 -2.18188,-1.26133 -2.88016,-1.56883 -0.49083,-0.21485 -1.29282,-0.45934 -1.5299,-0.96314 -0.17411,-0.37041 -0.12781,-1.17798 -0.16856,-1.62065 0,0 -0.35747,-3.88957 -0.35747,-3.88957 -0.12038,-1.21873 -0.88349,-1.8985 -0.90387,-3.88961 0,0 0,-4.07481 0,-4.07481 0,0 -0.37414,-2.03744 -0.37414,-2.03744 0,0 -6.61416,-0.5649 -6.61416,-0.5649 0,0 -3.57288,-0.23151 -3.57288,-0.23151 0,0 -2.0374,-0.4186 -2.0374,-0.4186 0,0 -2.77829,-0.26117 -2.77829,-0.26117 0,0 -2.22262,-0.16852 -2.22262,-0.16852 0,0 -2.03742,-0.38345 -2.03742,-0.38345 0,0 -2.48749,-0.75196 -2.48749,-0.75196 0,0 -0.476,-3.70251 -0.476,-3.70251 0.74088,-1.43362 0.44638,-4.25082 0.41675,-5.8659 -0.007,-0.43157 0.0444,-1.34469 -0.18893,-1.67066 -0.30931,-0.43342 -0.86868,-0.40381 -1.33913,-0.44452 -2.25413,-0.27044 -1.56882,0.0149 -3.33395,0 0,0 -2.40784,-0.16857 -2.40784,-0.16857 0,0 -5.00091,-0.40748 -5.00091,-0.40748 0,0 -1.85218,0 -1.85218,0 -1.32988,-0.0425 -1.91332,0.19633 -3.33395,-0.1482 -0.40378,2.50973 -2.82829,1.01503 -4.26003,0.65757 0,0 -2.58566,-0.29269 -2.58566,-0.29269 0,0 -3.15613,-0.32965 -3.15613,-0.32965 0,0 -1.1113,0 -1.1113,0 0,0 -5.18614,0 -5.18614,0 0,0 -9.44618,-0.40565 -9.44618,-0.40565 0,0 -2.77828,-0.18519 -2.77828,-0.18519 -0.5112,-0.006 -1.36135,0.0464 -1.81884,-0.12968 -0.57047,-0.21858 -1.0224,-0.89834 -1.52249,-1.30022 0,0 -2.78014,-1.88739 -2.78014,-1.88739 -1.04464,-0.61493 -3.10057,-1.76329 -3.68771,-2.80237 -0.75199,-1.33171 0.85571,-3.46545 -0.40563,-4.19523 -0.39822,-0.22963 -2.91349,-0.42227 -3.49138,-0.42411 -0.39451,0 -0.88534,-0.005 -1.1854,0.29263 -0.43342,0.42969 -0.28895,1.90219 -1.25393,2.49305 -0.4649,0.25377 -1.28357,0.10188 -1.79108,0 -1.10204,-0.15372 -2.32633,-0.05 -2.99312,-1.12242 -1.25023,0.0184 -3.63584,-1.07985 -4.81569,-1.60957 0,0 -2.59306,-0.98533 -2.59306,-0.98533 0,0 -1.21876,-0.52235 -1.21876,-0.52235 0,0 -5.26391,-0.93721 -5.26391,-0.93721 -0.65012,-0.26854 -1.93183,-0.99831 -2.51527,-1.40023 -0.56121,-0.38898 -1.08168,-0.98722 -1.76143,-1.15762 0,0 -2.94684,-0.27227 -2.94684,-0.27227 -1.7744,-0.17041 -3.48953,-0.5464 -5.18613,-1.07984 0.31488,-1.83924 2.3634,-1.40213 3.70438,-1.30394 0,0 1.48175,0 1.48175,0 1.16133,0.0224 2.54491,0.20928 3.69698,-0.0945 0.96313,-0.2556 3.04314,-1.89292 5.74919,-2.76902 0,0 3.88959,-0.95576 3.88959,-0.95576 0,0 3.8896,-1.04461 3.8896,-1.04461 0,0 1.8522,-0.41859 1.8522,-0.41859 1.55953,-0.56863 4.05628,-2.43194 4.44524,-2.56716 0.57232,-0.19628 1.64289,-0.17966 2.04111,0.34269 0.213,0.27779 0.45564,1.21873 0.55195,1.58731 2.21892,-0.64085 4.57491,-0.41491 6.8531,-0.55565 0,0 -0.10372,-3.33393 -0.10372,-3.33393 0,0 0.28894,-7.59399 0.28894,-7.59399 0,0 -0.21856,-2.96351 -0.21856,-2.96351 0,0 0,-1.29651 0,-1.29651 0,0 -0.33339,-5.7418 -0.33339,-5.7418 0,0 0.16299,-4.44526 0.16299,-4.44526 0,0 0,-1.71699 0,-1.71699 0,0 -0.15003,-1.11314 -0.15003,-1.11314 0,0 0,-2.72642 0,-2.72642 0,0 -0.20003,-2.22264 -0.20003,-2.22264 0,0 0.36859,-4.44525 0.36859,-4.44525 0,0 -0.18523,-4.44527 -0.18523,-4.44527 0,0 0.10373,-2.96166 0.10373,-2.96166 0,0 -0.10373,-2.78012 -0.10373,-2.78012 0,0 0.18523,-2.59304 0.18523,-2.59304 0,0 -0.18523,-6.85312 -0.18523,-6.85312 -0.0278,-1.58916 -0.88164,-2.35785 -1.75957,-3.54693 -0.38155,-0.51862 -0.57788,-1.10945 -1.11502,-1.54287 -0.43898,-0.35564 -0.85757,-0.38156 -1.38544,-0.48343 0,0 -1.29653,-0.27785 -1.29653,-0.27785 0,0 -3.33394,0.20006 -3.33394,0.20006 -0.57233,-0.0369 -1.50398,-0.0464 -1.87997,-0.51861 -0.43712,-0.55382 -0.32783,-1.66884 -0.34451,-2.35045 0,0 -0.30562,-4.81566 -0.30562,-4.81566 0.21486,-1.87073 1.66513,-1.36693 2.5301,-1.31319 0.94277,0.0593 3.50249,-0.27785 4.12668,-0.99652 0.36488,-0.42228 0.52416,-1.39839 0.73346,-1.95032 0.26116,-0.68532 0.6242,-1.11501 1.09095,-1.66698 2.08556,-2.45972 4.28781,-4.72864 6.09741,-7.41803 0.61862,-0.92053 0.26671,-0.98165 1.02796,-2.19669 1.17243,-1.87068 2.51156,-3.86922 2.66714,-6.15296 0,0 -2.0374,0 -2.0374,0 0,0 -3.33395,0.19259 -3.33395,0.19259 0,0 -2.22261,-0.52972 -2.22261,-0.52972 0,0 -2.22078,0.43159 -2.22078,0.43159 0,0 -2.22448,-1.18172 -2.22448,-1.18172 -0.51862,-1.61696 -1.23541,-1.38725 -1.61696,-2.41154 -0.37044,-0.99091 1.15206,-3.21539 1.98739,-3.70065 0,0 -0.18521,-0.92612 -0.18521,-0.92612 0.68346,-0.31113 1.31319,-0.92237 2.03741,-1.02241 0.65937,-0.0908 1.50953,0.33897 2.40784,0.45009 0,0 4.44525,0 4.44525,0 0,0 5.00091,-0.50378 5.00091,-0.50378 0.63901,-0.0425 0.82793,0.0834 1.29654,0.0944 0,0 1.74476,-0.10004 1.74476,-0.10004 0,0 2.33005,-0.36856 2.33005,-0.36856 0,0 1.85219,-0.13895 1.85219,-0.13895 0.47231,-0.0705 1.00574,-0.0963 1.32061,-0.50563 0.26487,-0.3445 0.31488,-1.1502 0.42231,-1.60956 0.78347,-3.28947 0.11112,-2.48191 0.10926,-5.55656 0,0 -6.29744,0.47046 -6.29744,0.47046 -0.3908,-0.0444 -1.12798,-0.39819 -1.45026,-0.62602 0,0 -2.27819,-2.63754 -2.27819,-2.63754 -0.5927,-0.64269 -1.75957,-1.717 -1.89108,-2.57822 -0.11114,-0.72609 0.3945,-1.14094 0.77236,-1.68181 0.78903,-1.12612 1.98184,-3.17835 3.55065,-2.02257 0,0 0.37043,-0.37045 0.37043,-0.37045 1.32062,0.73718 3.02464,0.263 4.44526,0.15556 0,0 1.68364,0 1.68364,0 0,0 1.65029,-0.14816 1.65029,-0.14816 0.74459,-0.0317 2.47453,-0.18149 2.96351,0.36305 1.10575,-0.43342 2.68752,-0.36862 3.8896,-0.37045 0.22041,-0.8983 1.44655,-0.71681 2.21522,-0.72237 0,0 2.41525,0 2.41525,0 0,0 1.85219,0.1593 1.85219,0.1593 0,0 2.22263,0 2.22263,0 0,0 5.18612,0.56307 5.18612,0.56307 0,0 3.70439,0.35562 3.70439,0.35562 0,0 2.59306,0 2.59306,0 0,0 3.14872,0.33711 3.14872,0.33711 0,0 2.9635,-0.32228 2.9635,-0.32228 0.0944,-0.72424 0.40378,-1.76885 0.99832,-2.24299 0.34081,-0.27232 2.1893,-0.63533 2.70605,-0.71868 0,0 6.66789,-0.74272 6.66789,-0.74272 0,0 2.7616,-0.3056 2.7616,-0.3056 0.43342,-0.0464 0.8872,0.0111 1.20949,-0.35191 0.36118,-0.40381 0.2945,-1.23173 0.28895,-1.75035 -0.0352,-2.94314 -1.56141,-2.57085 -1.56141,-5.927 0,-0.73901 0.0815,-2.70602 0.32785,-3.33393 0.51676,-1.3132 1.31134,-1.23726 1.22614,-3.33392 -0.0519,-1.26876 -0.78348,-2.79684 0.56307,-3.70439 -0.47972,-1.9726 0.12038,-4.90276 1.45582,-6.44379 0.69641,-0.80568 1.91701,-1.21316 2.37636,-2.08369 0.56121,-1.065 0.4297,-2.88757 0.42785,-4.06742 -0.006,-4.47672 0.4186,-4.99167 1.93925,-9.07571 0,0 0.7631,-2.00591 0.7631,-2.00591 0,0 0.35376,-1.32434 0.35376,-1.32434 0,0 1.60585,-3.12091 1.60585,-3.12091 0.45193,-0.71496 2.00778,-2.75609 2.61529,-3.31357 0,0 1.22615,-1.00947 1.22615,-1.00947 1.18911,-1.09466 3.62289,-3.55434 5.2028,-3.85811 0.10928,-0.79827 1.00945,-1.20763 1.66882,-1.55954 0,0 3.54879,-1.68919 3.54879,-1.68919 0.96129,-0.42972 1.22986,-0.88166 2.37637,-0.82607 0.65382,-0.72978 1.62807,-0.0963 2.38191,-1.13726 1.02982,-1.42249 0.23522,-3.54878 0.85386,-5.16022 0.49823,-1.30204 1.46878,-1.56506 1.25579,-2.24667 -0.13891,-0.45009 -2.31154,-2.07446 -2.7857,-2.58752 -1.02241,-1.10761 -0.98166,-2.64679 -0.96499,-4.05629 0.0297,-2.39303 0.98907,-3.09871 1.92072,-4.94905 0,0 0.50564,-1.48176 0.50564,-1.48176 0,0 0.86868,-1.34837 0.86868,-1.34837 0.45935,-0.97796 0.57419,-2.60602 1.23171,-3.66919 0.35006,-0.56865 0.81497,-0.72048 1.30393,-1.13539 0.57418,-0.48342 0.89091,-1.03907 1.58548,-1.41138 0,0 1.79478,-0.63343 1.79478,-0.63343 0.52973,-0.35747 0.47786,-0.85573 1.20021,-1.50027 0,0 1.14461,-0.95019 1.14461,-0.95019 0,0 1.4651,-1.75956 1.4651,-1.75956 0,0 1.3725,-1.21878 1.3725,-1.21878 0.8631,-0.85569 1.5373,-1.92812 2.2486,-2.90976 0.6649,-0.9187 1.7077,-2.36526 1.6947,-3.51915 1.478,-1.58552 -0.1982,-2.14301 -0.6112,-3.33582 -0.176,-0.5112 -0.1389,-1.81698 -0.1297,-2.40597 0.024,-1.37988 0.8335,-2.44673 0.5631,-4.26003 -0.15,-1.00205 -0.6742,-1.91149 -1.0502,-2.83202 -0.5834,-1.42063 -0.3982,-1.50211 -0.6779,-2.59121 -0.1778,-0.69271 -0.4538,-0.97239 -0.489,-1.80031 -0.033,-0.75571 0.5038,-3.04129 0.8539,-3.68403 0,0 0.8001,-1.13169 0.8001,-1.13169 1.591,-0.43526 0.7928,-1.33728 1.4762,-2.47266 0.6742,-1.12054 1.7263,-1.86331 2.7839,-2.5801 0.5908,-0.40009 1.5114,-0.72606 1.7373,-1.43543 0.1704,-0.54271 -0.1204,-1.28358 -0.2,-1.84665 -0.1093,-0.75939 -0.096,-1.85589 0.1056,-2.59308 0,0 1.1298,-3.33392 1.1298,-3.33392 0,0 0.6446,-2.59305 0.6446,-2.59305 0,0 0.6464,-1.84849 0.6464,-1.84849 0.033,-0.59824 -0.3927,-0.79646 -0.778,-1.14095 -0.513,-0.46119 -1.2817,-1.30951 -1.3632,-2.01147 0,0 0.3001,-3.33396 0.3001,-3.33396 0,0 0,-1.66695 0,-1.66695 0.026,-1.92444 1.0372,-2.70975 2.1374,-4.09152 0,0 1.028,-1.52434 1.028,-1.52434 0,0 0.8279,-0.77608 0.8279,-0.77608 0,0 2.1022,-2.1226 2.1022,-2.1226 0,0 1.0113,-1.01683 1.0113,-1.01683 0.6594,-0.78905 1.0187,-1.85221 1.9226,-2.32266 -0.1889,-0.82792 -0.3408,-3.7877 0,-4.57859 0,0 2.1134,-3.43768 2.1134,-3.43768 0.2574,-0.46304 0.4482,-1.4058 0.6371,-1.96887 0.2853,-0.84644 1.0669,-2.10409 0.9039,-2.98018 0,0 -1.8504,-4.26004 -1.8504,-4.26004 -0.2074,-1.14278 0.4464,-2.47265 0.094,-4.44525 0,0 0.7409,-0.37042 0.7409,-0.37042 0,0 -0.3871,-1.48175 -0.3871,-1.48175 -0.589,-1.81888 -0.9057,-1.57437 -0.8668,-3.70439 -0.044,-0.60935 -0.085,-1.87256 0,-2.40786 0.2778,-0.97607 0.9335,-1.88178 1.1669,-2.59304 0,0 0.3019,-1.29653 0.3019,-1.29653 0.2963,-1.12612 0.5426,-1.57436 1.0335,-2.59304 0.6668,-1.38178 1.4151,-3.38583 2.6579,-4.32673 0,0 2.7449,-1.54659 2.7449,-1.54659 1.454,-1.16687 0.6205,-1.42806 3.1654,-2.73199 1.2039,-0.61865 3.3562,-0.78716 4.0508,-1.95962 0.676,-1.14462 0.7186,-2.88383 0.8464,-4.17482 -0.015,-0.42232 0.1074,-1.19282 0,-1.55955 -0.1241,-0.92053 -0.9243,-1.25207 -0.802,-2.77827 0.082,-1.03355 1.015,-3.34691 0.6631,-4.25819 -0.2463,-0.639 -1.5929,-1.53735 -2.1652,-2.04854 -1.5151,-1.35392 -3.4006,-3.00796 -4.4471,-4.74343 -1.3225,-2.19112 -1.2873,-3.45251 -1.4577,-5.85663 0,0 -0.2019,-1.4299 -0.2019,-1.4299 0,0 0,-3.70434 0,-3.70434 -0.022,-1.38545 -0.4093,-2.09856 0,-3.5192 -0.815,-0.64269 -0.7279,-2.73568 -0.5816,-3.69693 0.2778,-1.82255 2.0615,-4.78421 3.3951,-6.01037 0,0 1.1761,-0.87977 1.1761,-0.87977 1.0465,-0.83908 1.5707,-1.79848 3.0432,-1.45215 0.4389,-0.46675 0.9094,-0.2556 1.5132,-0.5649 1.9189,-0.98353 3.0283,-1.86516 5.2936,-1.77442 0.3723,-0.0205 1.2706,0.15745 1.5317,0 0.4446,-0.19076 0.7205,-1.06685 0.9483,-1.49839 0,0 1.9652,-3.03389 1.9652,-3.03389 0,0 1.5596,-1.4688 1.5596,-1.4688 0,0 4.7842,-2.95794 4.7842,-2.95794 0.031,-0.91868 0.6982,-1.76517 1.4817,-2.22262 -0.042,-1.18724 0.8687,-2.20596 1.2428,-3.33393 0,0 0.5446,-2.22447 0.5446,-2.22447 0,0 1.0928,-2.16893 1.0928,-2.16893 0.2834,-0.7057 0.1741,-1.02426 0.7557,-1.87258 0.3148,-0.45934 2.4393,-2.68938 2.8634,-3.00237 0.6242,-0.45935 1.0354,-0.53901 1.6503,-1.10392 1.0595,-0.0296 1.6337,-0.68902 2.5931,-1.09463 2.0467,-0.86499 2.8172,-1.85593 4.6138,-2.995 0.9187,-0.58157 3.0469,-1.51878 4.0915,-1.89851 1.8689,-0.67976 4.5545,-0.12411 5.927,-0.35005 0.9409,-0.15557 1.7188,-0.86684 2.5931,-1.23726 0,0 1.2965,-0.47417 1.2965,-0.47417 0,0 1.4818,-0.69086 1.4818,-0.69086 0,0 2.0374,-0.72977 2.0374,-0.72977 1.8521,-0.92423 1.8225,-2.10593 2.8727,-2.82089 0,0 3.2395,-1.75955 3.2395,-1.75955 0,0 5.0009,-3.70811 5.0009,-3.70811 0.652,-0.44267 1.6095,-0.75566 2.1374,-1.2502 0.9835,-0.91868 1.4336,-2.62459 2.1856,-3.77295 0,0 4.5675,-5.37133 4.5675,-5.37133 -0.3945,-0.37971 -1.6114,-1.78363 -1.8226,-2.22263 -0.2074,-0.43157 -0.2129,-0.829764 -0.2129,-1.296524 -0.01,-2.69865 1.4687,-3.70623 2.0503,-5.74179 0.4649,-1.62807 0.1963,-3.7655 0.9372,-4.9472 0.8706,-1.39471 2.9709,-1.83182 3.5673,-2.55971 0.5131,-0.62233 0.289,-2.76165 0.3297,-3.60624 -0.017,-1.48728 0.6427,-3.23021 0,-4.63044 -0.4982,-1.2169 -2.7838,-3.10057 -2.5671,-4.260036 0.1408,-0.761278 0.8557,-1.331753 1.1817,-2.037401 0.489,-1.057636 -0.033,-1.946672 0.552,-3.148737 0.2444,-0.501946 1.0131,-1.605868 1.4539,-1.948514 0.7316,-0.572318 0.9706,-0.327817 1.754,-1.200223 0,0 0.3705,0.185229 0.3705,0.185229 0,0 0.7094,-1.429895 0.7094,-1.429895 0.2685,-0.913121 -0.5427,-2.407818 1.1094,-3.930328 0.3649,-0.337118 0.7853,-0.609391 1.3466,-0.479747 1.1946,0.311188 0.052,2.154144 0,2.876464 0.03,0.57789 0.3278,1.096507 0.2834,1.852213 -0.074,1.265023 -0.8613,2.309673 -1.141,3.519153 0,0 -0.1408,1.109452 -0.1408,1.109452 -0.082,0.568632 -0.1833,0.709377 -0.1463,1.329867 0,0 0.3038,3.665469 0.3038,3.665469 0,0 1.0946,2.600504 1.0946,2.600504 0.2389,0.69639 0.3538,1.84107 0.4112,2.59305 0.044,0.61307 -0.071,0.89829 -0.1093,1.48175 0,0 -0.2111,4.26003 -0.2111,4.26003 0,0 -0.1649,1.53361 -0.1649,1.53361 0,0 0.263,1.05944 0.263,1.05944 0.1519,0.72052 -0.1815,2.11707 0.652,2.40786 0.1519,0.75198 1.2336,3.86368 1.6355,4.38967 0.4593,0.60567 1.5058,0.67051 1.9003,1.90776 0.389,1.22619 -0.6538,3.10798 -1.0779,4.260074 -0.2131,0.57417 -0.2001,0.7501 -0.3279,1.29653 -0.1167,0.50195 -0.3556,1.01499 -0.2334,1.53361 0.2908,1.228 1.3151,2.06702 1.9411,3.09684 0.3631,0.59825 0.4705,1.24839 1.0187,1.71327 1.0391,0.88166 2.5598,1.0576 3.6248,2.8394 0.7223,1.20766 0.2445,2.41153 0.2482,2.93388 0,0 0.1352,1.03352 0.1352,1.03352 0.067,1.74476 -0.4223,0.50193 0.3964,2.59308 0,0 0.7408,-0.18524 0.7408,-0.18524 0.7316,1.6855 1.5781,1.10205 2.9635,1.45027 0.6742,0.1704 1.2632,0.52602 1.8689,0.852 0,0 6.466,3.59326 6.466,3.59326 0,0 2.9561,0.9576 2.9561,0.9576 0.5371,0.15189 1.1983,0.22963 1.6114,0.61492 0.8705,0.81125 1.1817,2.89683 1.5447,4.01553 1.7633,-0.12597 2.7579,2.01146 2.7783,3.51915 0.026,2.10593 -0.2,1.54287 -0.3853,2.9635 0,0 0,3.07096 0,3.07096 -0.1037,2.03551 2.2115,5.7177 3.6118,7.13829 0.7057,0.71499 2.4616,2.31898 3.4414,2.38567 0.7353,0.77233 2.0077,1.23725 2.3022,1.91143 0.3779,0.86684 -0.1592,2.49676 -0.287,3.38209 -0.2334,1.62067 0.2778,1.93922 0.1703,3.04131 -0.1148,1.19654 -0.752,1.64473 -0.513,3.33392 0.057,0.40749 0.6631,2.44119 0.8539,2.77086 0.5167,0.88908 1.1854,1.01687 1.2724,2.23004 0.065,0.9076 -0.3482,1.69849 -0.4464,2.40787 -0.057,0.42784 0.4427,4.00258 0.6224,4.36746 0,0 0.7316,1.00574 0.7316,1.00574 0.8724,1.26503 1.1446,2.02442 2.5189,2.99313 0.628,0.44084 2.6024,1.49842 2.9784,2.03188 0.5779,0.95387 -0.048,2.92085 0,4.0322 0.1148,1.08536 0.9761,1.89661 1.8429,2.46154 0,0 2.4004,1.29285 2.4004,1.29285 0,0 1.2966,0.41302 1.2966,0.41302 1.1409,0.50935 1.7151,1.06317 3.0394,1.40765 1.4373,0.37231 3.834,0.6594 4.7268,1.92999 0.2278,0.32413 0.6538,2.2393 0.7038,2.68199 0.07,0.63527 -0.1037,1.18723 0.1797,2.23929 0.363,1.34654 1.7688,2.54493 2.0041,3.52658 0.3315,1.3743 -0.2186,3.12834 -0.2186,4.25261 0,0.93905 0.576,2.62455 0.7668,3.67289 0.2834,1.57248 2.7116,3.76918 1.4484,5.12314 -0.5834,0.62606 -2.2096,0.42599 -3.0191,0.48158 0,0 -6.2974,0.37046 -6.2974,0.37046 0,0 -1.8522,0.16852 -1.8522,0.16852 0,0 -6.4826,0.37047 -6.4826,0.37047 0,0 -4.4453,0.3704 -4.4453,0.3704 0,0 -3.7044,0.36306 -3.7044,0.36306 -0.5445,0.024 -1.5484,-0.0741 -1.9966,0.19632 -1.4984,0.91128 0.3649,3.27281 -1.191,3.95999 -0.6242,0.27595 -3.2506,0.44267 -4.0359,0.49822 -1.1021,0.0759 -3.9915,0.66493 -5.0009,1.09466 0,0 2.2226,1.23352 2.2226,1.23352 0,0 2.5931,0.9502 2.5931,0.9502 0.4834,0.2334 1.3613,0.45192 1.5077,1.00389 0.1018,0.22594 0.056,0.47602 0,0.69271 -0.4575,1.06132 -2.0597,0.75943 -2.9876,0.99279 -0.5798,0.14446 -0.778,0.45192 -1.165,0.53898 -0.3649,0.13148 -0.9947,-0.0262 -1.4299,0 0,0 -2.2245,0.19448 -2.2245,0.19448 -3.8563,0.64457 -7.7514,1.57252 -11.667,1.61697 0,0 -5.7418,0.45009 -5.7418,0.45009 0,0 -3.5191,0.50935 -3.5191,0.50935 0,0 -1.1113,0.17409 -1.1113,0.17409 0,0 -1.1113,0 -1.1113,0 0,0 -2.0374,0.5038 -2.0374,0.5038 0,0 -2.5931,0 -2.5931,0 0,0 -5.7418,0.52787 -5.7418,0.52787 0,0 -4.8157,0.27411 -4.8157,0.27411 0,0 -4.1267,0.52972 -4.1267,0.52972 0,0 -1.2446,0.32971 -1.2446,0.32971 0,0 -4.6305,0.48527 -4.6305,0.48527 0,0 -3.8896,0.6075 -3.8896,0.6075 0,0 -2.33,0.22784 -2.33,0.22784 0,0 -1.5596,0.2871 -1.5596,0.2871 0,0 -3.3339,0.36305 -3.3339,0.36305 0,0 -2.0374,0.41854 -2.0374,0.41854 0,0 -3.1488,0.27043 -3.1488,0.27043 -1.0872,0.11854 -1.2446,0.45749 -2.4078,0.15374 0,0 -1.1113,0.38524 -1.1113,0.38524 0,0 -2.9635,0 -2.9635,0 0,0 -2.7783,0.1704 -2.7783,0.1704 -0.4075,0.46308 -0.8928,0.44267 -1.4817,0.55568 0,0 -3.334,0.53341 -3.334,0.53341 0,0 -5.1935,0.4149 -5.1935,0.4149 0,0 -8.3275,1.08725 -8.3275,1.08725 -0.8612,0.0185 -1.5058,0.0685 -1.9892,-0.77237 -0.3279,-0.57232 -0.3797,-1.74104 -0.9835,-1.79847 -0.3705,-0.0351 -0.7706,0.47601 -0.9632,0.73714 -0.8761,1.18544 -0.5204,1.34843 -1.9911,2.20597 1.5614,0.0926 1.7077,0.75755 2.4079,2.03744 0,0 0.7408,-2.03744 0.7408,-2.03744 0.5001,-0.0908 0.5613,-0.18335 0.9261,0.18523 2.5727,-0.72974 6.4308,0.95203 9.0758,1.26501 0,0 4.26,0.62607 4.26,0.62607 0,0 2.2523,0.58157 2.2523,0.58157 0,0 4.599,0.49085 4.599,0.49085 0,0 4.0692,0.22783 4.0692,0.22783 0,0 3.4488,0.52972 3.4488,0.52972 2.3856,0.2241 3.2283,0.0852 5.6343,0.7242 0.4279,-0.43526 0.7224,-0.23893 1.2966,-0.20189 0,0 2.9616,0.15188 2.9616,0.15188 0,0 2.2319,0.0944 2.2319,0.0944 0,0 1.3651,0.36857 1.3651,0.36857 0,0 1.6243,0 1.6243,0 0,0 3.3006,0.34453 3.3006,0.34453 0.9928,0.0797 0.9854,0.31488 2.406,0.35564 0,0 8.3441,0.37782 8.3441,0.37782 0,0 5.7344,0.83718 5.7344,0.83718 0,0 1.4818,0.1389 1.4818,0.1389 0,0 2.6708,0.51493 2.6708,0.51493 0,0 1.7744,0 1.7744,0 0,0 3.8822,0.41118 3.8822,0.41118 1.5299,0.0262 1.391,0.21858 2.569,0.33712 0,0 1.6984,0 1.6984,0 1.091,0.15742 1.3948,0.47045 2.9117,0.3519 0,0 1.165,-0.21116 1.165,-0.21116 0,0 1.6651,0.19633 1.6651,0.19633 1.3799,0.0555 3.1562,-0.23705 4.4045,0.61307 1.0002,0.68345 0.5761,2.38563 1.7337,3.26729 0,0 4.7897,2.58563 4.7897,2.58563 0,0 1.4818,0.39266 1.4818,0.39266 0.8428,0.32229 1.4558,0.94835 2.7783,1.291 1.1372,0.29447 3.158,0.47045 2.6949,2.2189 -0.2111,0.80015 -1.0872,0.8409 -1.7688,0.97428 -2.5264,0.48896 -2.8524,0.72052 -5.1862,1.62991 0.4298,0.33339 0.6446,0.82792 1.1225,1.11502 0.6575,0.39639 1.654,0.34638 2.4652,1.66698 0.1964,0.32044 0.402,0.72417 0.4353,1.10389 0.052,0.59083 -0.2037,0.92053 -0.7705,1.08168 0,0 -2.9598,0 -2.9598,0 -0.915,0.0351 -0.9798,0.26117 -1.9596,0 0,0 0,0.40379 0,0.40379 -1.0595,-0.0649 -2.0671,0.19261 -3.1172,0.29821 -0.5446,0.0555 -1.4188,0.0741 -1.8708,0.40192 -0.8464,0.61307 0.054,2.15594 -1.4243,2.36521 0,0 -0.6427,0 -0.6427,0 0,0 -1.0872,0 -1.0872,0 0,0 -7.9719,1.32803 -7.9719,1.32803 0,0 -4.3137,0.39823 -4.3137,0.39823 0,0 -3.095,0.20931 -3.095,0.20931 0,0 -5.927,0.35748 -5.927,0.35748 0,0 -1.5299,0 -1.5299,0 0,0 -5.5084,0.6075 -5.5084,0.6075 0,0 -6.7439,0.66678 -6.7439,0.66678 0,0 -1.8558,0 -1.8558,0 0,0 -3.0691,0.22041 -3.0691,0.22041 0,0 -4.8935,0.18339 -4.8935,0.18339 0,0 -6.2197,0.89645 -6.2197,0.89645 0,0 -4.2619,0.22784 -4.2619,0.22784 0,0 -2.2207,0.32781 -2.2207,0.32781 0,0 -6.8531,0.61864 -6.8531,0.61864 0,0 -2.7801,0.46677 -2.7801,0.46677 0,0 -3.5174,0.5223 -3.5174,0.5223 0,0 -2.4078,0.58714 -2.4078,0.58714 0,0 -4.8157,0.74826 -4.8157,0.74826 -1.4706,0.2445 -4.9416,0.49084 -6.1122,1.01319 0,0 1.6744,0 1.6744,0 0,0 1.4724,0.32041 1.4724,0.32041 0,0 3.521,0.30933 3.521,0.30933 0,0 3.2618,0.62602 3.2618,0.62602 0,0 2.3504,0.10004 2.3504,0.10004 0,0 1.6114,0.37598 1.6114,0.37598 0,0 2.7783,0.37047 2.7783,0.37047 0,0 2.3541,0.4593 2.3541,0.4593 0,0 2.2764,0.2445 2.2764,0.2445 0,0 1.4817,0.49269 1.4817,0.49269 1.478,-0.29079 4.4082,0.18891 5.927,0.4908 0,0 1.6651,0.16298 1.6651,0.16298 0,0 1.1336,0.35936 1.1336,0.35936 0.7834,0.22595 1.9688,0.29636 2.7894,0.32598 0.8872,0.0317 1.0853,0.25002 1.7114,0.37971 0,0 1.7633,0 1.7633,0 0,0 4.6434,1.03167 4.6434,1.03167 0,0 6.5142,0.43895 6.5142,0.43895 0,0 1.9763,0.1908 1.9763,0.1908 0,0 3.1783,0.18891 3.1783,0.18891 1.7281,0.22411 0.6557,0.50563 2.9135,0.36858 0,0 6.3474,0.69271 6.3474,0.69271 0.7039,0.004 2.1041,-0.13706 2.5931,0.37044 1.8541,-0.1889 3.747,0.75568 5.5566,1.08911 0,0 1.4817,0 1.4817,0 0,0 2.4079,0.40375 2.4079,0.40375 0,0 1.8521,0 1.8521,0 0,0 3.2006,0.6205 3.2006,0.6205 0,0 1.8004,0.16298 1.8004,0.16298 0,0 2.4078,0.48344 2.4078,0.48344 0,0 1.4818,0 1.4818,0 2.3189,0.19817 2.2596,1.1187 5.0009,0.75939 0.2408,0.5316 1.8207,0.45378 2.4078,0.54269 0,0 5.7418,0.87053 5.7418,0.87053 0.4167,0.13521 1.4299,0.39082 1.6596,0.74456 0.2463,0.37788 -0.4649,2.2171 -0.7909,2.49491 -0.4445,0.37971 -1.5466,0.56122 -2.1652,0.82796 -1.4132,0.6075 -3.6248,1.71696 -4.6305,2.85422 2.1745,0 6.4641,0.51673 8.3108,1.60766 1.4725,0.87053 0.6927,2.48749 2.9876,2.82089 2.5171,0.36489 5.0694,0.1908 7.5939,0.21489 0,0 1.2966,0.1389 1.2966,0.1389 0,0 2.7782,0 2.7782,0 1.9559,0.0167 3.9193,-0.60567 5.7418,0.40375 0,0 0,2.03744 0,2.03744 0,0 5.7418,0.36301 5.7418,0.36301 0,0 12.7801,0.19261 12.7801,0.19261 0,0 4.0748,0.37046 4.0748,0.37046 0,0 5.7418,0 5.7418,0 0.9557,0.004 2.5616,-0.11666 3.1247,0.81124 0.4204,0.63716 0.01,1.73367 0,2.47639 0,0 0,2.42265 0,2.42265 0.01,1.04096 -0.1223,2.61529 0.4204,3.51915 0.5131,0.85574 2.2319,2.02078 2.5319,2.64126 0.1482,0.3093 0.276,2.63191 0.7206,3.68772 0,0 3.0783,4.66195 3.0783,4.66195 0.5445,1.12612 0.1352,1.78921 0.2149,2.37635 0,0 1.0223,2.96346 1.0223,2.96346 0,0 -1.6669,0.74092 -1.6669,0.74092 0.4056,1.56139 1.0594,3.98034 0.9075,5.55656 -0.096,0.98539 -1.1205,2.45046 -0.9501,3.14869 0.2427,0.99837 1.0409,1.83002 1.6577,2.59494 0.8038,1.00021 2.0893,2.74682 2.6134,3.88777 0.3501,0.76124 0.5631,2.50412 0.489,3.33393 0,0 -0.2704,2.0374 -0.2704,2.0374 -0.024,1.07058 0.1648,2.44673 0.9798,3.23204 0.5316,0.51309 0.9854,0.45751 1.5225,1.2484 0.9427,1.38915 0.3204,1.51142 2.5264,4.25635 0.8427,1.05017 2.2133,2.28001 2.3374,3.67288 0.1075,1.22057 -0.6093,2.21154 -0.6779,3.14874 0,0 0.1445,2.03735 0.1445,2.03735 0,0 -0.1667,2.03745 -0.1667,2.03745 0,0 0,6.66788 0,6.66788 0,0 0.6964,4.9935 0.6964,4.9935 -0.087,0.55564 -0.3241,0.70565 -0.5297,1.15022 0,0 -0.3815,1.07982 -0.3815,1.07982 0,0 -0.7372,1.1113 -0.7372,1.1113 0,0 -0.6612,1.47992 -0.6612,1.47992 -0.5668,1.18349 -1.0558,1.68544 -0.8372,3.15057 0.2203,1.47802 1.1409,3.01722 1.2483,4.63045 0,0 -0.5704,4.44526 -0.5704,4.44526 0.2296,1.14279 2.0114,3.42101 2.706,4.46189 0.3927,0.59087 0.6149,1.59845 1.767,3.31729 0.9002,1.34097 1.8855,2.40599 1.9189,4.08038 0.011,0.5427 0.048,0.74087 -0.3593,1.10576 0.1426,1.17798 -0.6724,2.3782 -0.9706,3.51915 0,0 -0.3593,2.77829 -0.3593,2.77829 -0.096,0.77237 -0.6891,3.54139 -0.9484,4.26002 -0.3037,0.83907 -0.2889,1.55586 -1.0557,2.0374 0,1.07242 -1.0391,2.06149 -1.591,2.96352 -0.3834,0.62416 -0.7409,2.00777 -0.8261,2.74682 -0.1574,1.34096 0.2463,1.61139 0.6075,2.80973 0.3593,1.19101 0.8261,3.03944 0.6983,4.26007 2.0837,1.23353 0.8686,2.29485 0.5853,3.33392 0,0 -0.1315,1.24467 -0.1315,1.24467 -0.2853,0.91681 -1.5281,1.71884 -1.4281,4.31188 0.061,1.5577 -0.526,3.04872 -0.263,4.6305 0.2112,1.25945 1.1465,2.46714 0.8465,3.70439 -0.5797,2.40228 -3.4154,6.58822 -3.923,7.96436 0,0 -0.5797,2.77833 -0.5797,2.77833 0,0 0,1.29651 0,1.29651 0,0 -0.1574,1.48175 -0.1574,1.48175 0,0 0,1.29654 0,1.29654 -0.02,1.1391 -0.313,1.52808 -0.2408,2.79493 0,0 0,1.46508 0,1.46508 0.057,0.46309 0.3519,0.82792 0.3352,1.23726 -0.01,0.20379 -0.1222,0.37972 -0.1852,0.5668 -0.5371,1.64473 -0.2186,0.6612 -0.9816,1.95219 0,0 -0.389,0.76864 -0.389,0.76864 -0.3186,0.36858 -2.1949,0.44457 -2.7487,0.50012 -0.9964,0.10004 -1.7595,0.22967 -2.7782,0.10928 -0.5483,-0.0667 -2.3005,-0.40933 -2.6987,-0.31856 -0.5482,0.12408 -1.6947,1.1298 -2.1485,1.52063 -0.5483,0.47228 -1.0706,0.7242 -1.2651,1.44283 0,0 -0.9261,0.92612 -0.9261,0.92612 -0.8835,0.2408 -1.8318,1.30577 -2.48,1.9596 -1.4188,1.4299 -2.3412,2.46714 -4.1878,3.41176 0,0 2.406,2.39114 2.406,2.39114 0,0 3.082,2.90239 3.082,2.90239 0,0 2.5412,3.00796 2.5412,3.00796 0,0 3.0839,3.73772 3.0839,3.73772 0,0 0.5556,-0.37041 0.5556,-0.37041 0.6187,0.24077 1.4725,0.41486 2.0375,0 0,0 0.9261,0.55565 0.9261,0.55565 0,0 0.7408,-0.55565 0.7408,-0.55565 0.7224,0.74083 1.3984,0.32413 2.2227,0 0.4019,0.64268 1.8318,1.28538 2.593,1.29652 0.1575,0.85938 0.3927,2.85606 0.352,3.70439 -0.028,0.55375 -0.1853,1.14278 -0.7576,1.36874 -0.4834,0.1908 -1.8837,-0.25929 -2.5579,-0.34823 0,0 -2.03,0 -2.03,0 0,0 -1.391,0 -1.391,0 0,0 -1.7651,-0.0944 -1.7651,-0.0944 -0.7131,-0.007 -2.3652,-0.0778 -2.9635,0.15746 -1.8078,0.70937 -5.062,4.56748 -6.6586,6.08627 0,0 -3.7063,2.92648 -3.7063,2.92648 0,0 -1.1502,1.065 -1.1502,1.065 0,0 -1.7892,1.35579 -1.7892,1.35579 -1.2965,1.05945 -4.1933,3.68215 -5.2176,4.89348 1.4429,0.91127 3.2302,4.21742 4.4193,5.69176 0,0 3.0561,3.13948 3.0561,3.13948 0,0 0.6168,0.98538 0.6168,0.98538 0,0 1.3669,1.75771 1.3669,1.75771 0,0 2.0949,2.43006 2.0949,2.43006 0,0 2.9431,2.85054 2.9431,2.85054 0,0 3.3765,3.34133 3.3765,3.34133 0.3686,0.34453 1.0021,1.02241 1.4058,1.23173 0.4557,0.2352 0.9669,0.2352 1.4651,0.24262 0,0 2.5931,0 2.5931,0 0.3704,0 1.065,-0.0425 1.365,0.1815 0.2612,0.19449 0.2834,0.65756 0.3908,0.9613 0.1408,0.40379 0.6465,1.40768 0.9076,1.74108 0.7946,1.01683 2.7005,1.56695 3.0747,2.17261 0.2796,0.45009 0.1833,1.77996 0.1889,2.35227 0,0 0.3186,2.77829 0.3186,2.77829 0,0 0.1537,2.77827 0.1537,2.77827 0.011,1.43173 0.5797,2.59494 -0.1019,3.88961 0,0 1.1113,-0.37046 1.1113,-0.37046 0,0 -0.413,1.55959 -0.413,1.55959 0,0 0,2.88568 0,2.88568 0,0 -0.9465,3.70439 -0.9465,3.70439 0,0 -0.2574,2.22261 -0.2574,2.22261 -0.2093,1.46509 -0.011,3.19687 -1.717,3.70438 0.137,1.4632 -0.6761,1.55771 -1.8522,1.71885 -1.967,0.26854 -2.2411,0.31488 -4.26,0.31856 0,0 -2.5931,0.15189 -2.5931,0.15189 0,0 -1.4817,-0.15005 -1.4817,-0.15005 0,0 -2.6246,0.15747 -2.6246,0.15747 0,0 -3.4877,0.0944 -3.4877,0.0944 0,0 -1.8521,0.11666 -1.8521,0.11666 0,0 -3.7044,0 -3.7044,0 0,0 -4.8157,-0.50379 -4.8157,-0.50379 0,0 -3.3414,-0.30005 -3.3414,-0.30005 -0.6001,-0.0555 -3.4876,-0.29262 -3.8822,-0.16483 -0.9779,0.32041 -2.3041,1.867 -2.9931,2.63565 0,0 -1.654,1.80036 -1.654,1.80036 0,0 -2.0207,1.90403 -2.0207,1.90403 0,0 -0.3705,-0.18524 -0.3705,-0.18524 0,0 -3.5728,3.80442 -3.5728,3.80442 0,0 -1.0576,1.38173 -1.0576,1.38173 -2.0078,1.44099 -4.8213,5.664 -6.4827,6.48265 1.1317,2.14116 4.7064,6.57713 6.3771,8.52006 0,0 1.2576,1.34839 1.2576,1.34839 0,0 2.908,3.83776 2.908,3.83776 0,0 1.0872,1.8133 1.0872,1.8133 0,0 0.7594,0.84832 0.7594,0.84832 0,0 1.6818,2.47266 1.6818,2.47266 0.2926,0.36673 1.2095,1.38914 1.3187,1.7503 0,0 -0.094,2.19301 -0.094,2.19301 0,0 0.2501,1.47986 0.2501,1.47986 0,0 0,1.87999 0,1.87999 0.093,0.93353 0.3315,1.70402 -0.1945,2.58936 -0.7446,1.25025 -2.6375,1.49286 -3.5766,2.65232 -0.5149,0.63716 -0.6594,3.46545 -0.6612,4.36194 0,0 -0.092,3.33393 -0.092,3.33393 0,0 0,2.64491 0,2.64491 0,0 -0.6427,3.27654 -0.6427,3.27654 0,0 -0.3945,2.41338 -0.3945,2.41338 0,0 0,1.48176 0,1.48176 0,0 -0.4594,1.85221 -0.4594,1.85221 -0.2408,1.09094 -0.8076,3.77287 -1.7855,4.3619 -0.5019,0.30005 -1.2391,0.27413 -1.8096,0.2667 -1.4095,-0.0205 -1.9466,0.0815 -3.3358,-0.36856 -0.5167,0.88718 -1.0724,0.84643 -1.7577,1.51509 0,0 -3.9841,3.98404 -3.9841,3.98404 -1.8855,1.78552 -2.2652,1.42988 -3.5191,3.94698 -0.4816,0.05 -0.7409,0.0759 -0.9669,0.57795 -0.4093,0.90755 0.5798,1.5984 1.1502,2.15774 0,0 4.9528,5.2121 4.9528,5.2121 0.6668,0.74645 1.604,1.20023 1.2502,2.41524 -0.2445,0.83534 -2.3448,2.22635 -3.0431,2.85794 0,0 -1.4133,1.54287 -1.4133,1.54287 0,0 -3.5969,3.75809 -3.5969,3.75809 0,0 1.667,0.92611 1.667,0.92611 0.2037,0.74271 1.4354,1.7929 2.0096,2.35601 1.5651,1.53356 2.932,2.60413 4.1563,4.48969 0.4797,0.73898 1.2206,1.43726 0.9965,2.41155 -0.2408,1.05202 -1.3299,0.88719 -2.1615,0.99459 0,0 -2.795,0 -2.795,0 0,0 -2.5764,0.16487 -2.5764,0.16487 -0.4482,0.0185 -0.6167,-0.0464 -1.1113,0 -1.7799,0.11671 -1.0372,0.0224 -2.5931,0 -2.1189,-0.11854 -3.6377,1.42432 -5.2935,2.50417 0,0 -0.9761,0.52971 -0.9761,0.52971 0,0 -2.0633,1.44657 -2.0633,1.44657 0,0 -1.6763,1.42248 -1.6763,1.42248 0,0 -3.1413,2.3041 -3.1413,2.3041 -1.0335,0.72978 -2.3986,1.8559 -3.5192,2.30595 0,0 0.1853,0.37046 0.1853,0.37046 -0.6983,0.64641 -0.8428,0.88535 -1.8522,0.92611 0,0 -0.3705,0.92606 -0.3705,0.92606 0,0 -0.7408,0.37046 -0.7408,0.37046 1.2798,0.27042 4.0433,2.25597 4.4452,3.51915 1.1965,0.17041 2.6246,1.75775 3.5488,2.5505 0.5835,0.49637 2.9783,2.36521 3.208,2.82824 0,0 0.3352,3.69697 0.3352,3.69697 0.1982,1.47438 0.9613,3.26175 0.9076,4.63048 -0.046,1.22986 -0.02,2.47267 0.1982,3.68772 0,0 0.226,0.80941 0.226,0.80941 0.2019,1.3021 -1.1428,2.00779 -1.9337,2.78941 0,0 -2.2467,2.31706 -2.2467,2.31706 -1.9633,1.84296 -1.6188,1.0002 -3.3173,3.54696 1.0409,0.46677 1.8355,1.27617 2.7783,1.88924 0,0 1.4817,0.83534 1.4817,0.83534 0,0 4.9936,3.66547 4.9936,3.66547 1.1298,0.91127 2.5356,1.79294 2.9709,3.24136 0,0 -0.7409,-0.18524 -0.7409,-0.18524 0,1.717 0.1834,5.46025 1.4225,6.68641 0.4,0.3945 2.8542,2.09113 3.395,2.38193 0.7131,0.38341 1.3984,0.44821 1.8504,1.1187 0,0 2.593,0.18523 2.593,0.18523 0,0 1.5614,0.72049 1.5614,0.72049 0,0 1.4021,4.28043 1.4021,4.28043 0.5483,-0.0779 1.4929,-0.0779 1.8411,0.46487 0.3167,0.49454 -0.1408,1.07059 -0.1426,1.62438 0,0 0.1445,1.05944 0.1445,1.05944 0,0 0,2.40787 0,2.40787 1.7984,0.39822 2.5226,1.14836 3.6617,1.60954 0.8632,0.34822 1.8578,0.36488 2.4598,1.16872 0,0 0.5556,-0.18522 0.5556,-0.18522 0,0 0.1852,0.37046 0.1852,0.37046 0,0 0.1852,0 0.1852,0 0,0 -0.094,2.40782 -0.094,2.40782 0,0 0.094,1.29652 0.094,1.29652 1.7615,0.46307 3.4933,1.47254 4.7676,2.77275 0.726,0.73903 0.9983,0.54638 1.1594,1.48732 1.078,0.17965 1.2595,0.8205 1.83,1.66694 0.9428,1.39286 1.6633,2.44305 1.6595,4.20822 0,1.50395 0.037,2.71159 0.6595,4.12665 0,0 0.7186,1.66699 0.7186,1.66699 0.4167,1.30395 0.9502,3.31725 1.6392,4.44522 0.739,1.20948 2.4208,2.21337 2.7005,3.70255 0.1222,0.64084 -0.4835,4.17854 -0.639,5.00274 0,0 -0.4279,2.17078 -0.4279,2.17078 0,0 -0.098,1.34837 -0.098,1.34837 -0.4297,3.46545 -0.8835,2.93943 0,6.66789 0.413,1.90218 1.278,2.54861 2.3912,3.94889 0,0 1.002,1.42243 1.002,1.42243 0.4001,0.55201 1.1799,1.37809 1.2725,2.03745 0.1352,0.96871 -0.8409,1.67625 -1.1113,2.59305 -0.2871,0.97239 0.4852,1.38362 -0.6687,2.0374 0.1482,0.37788 0.5297,1.05764 0.4464,1.43915 -0.087,0.38897 -0.5242,0.65568 -0.5297,1.15394 -0.01,0.35006 0.363,0.92795 0.4982,1.30394 0.3223,0.89461 0.8742,2.92276 1.3502,3.64327 0.9928,1.50395 3.723,1.57804 4.4694,3.21906 0.3389,0.74646 -0.1926,3.47288 0.094,4.61382 0.2889,1.13911 1.2521,1.85958 1.9263,2.77644 0,0 1.4521,2.19297 1.4521,2.19297 1.4817,1.78737 3.2302,2.59309 5.4806,2.99501 0,0 -0.3704,0.74088 -0.3704,0.74088 0.8001,0.32229 0.8298,0.69085 0.4889,1.4799 -0.4593,1.05759 -1.6836,1.90588 -1.178,4.44711 0.4094,2.06149 1.4022,1.8355 1.4299,3.88961 0.028,2.2004 -0.8112,4.45079 -2.0022,6.29555 0,0 -0.8742,1.16503 -0.8742,1.16503 0,0 -2.2338,3.28211 -2.2338,3.28211 0,0 -0.8556,1.03352 -0.8556,1.03352 -0.1927,0.28894 -1.0762,2.31152 -1.1595,2.67082 0,0 -0.2112,1.29654 -0.2112,1.29654 0,0 -0.7946,2.59308 -0.7946,2.59308 -0.4445,1.55954 -0.5945,3.48581 0,5.0009 0.915,2.13928 1.7522,1.91702 1.604,3.31726 0,0 -0.1241,0.94277 -0.1241,0.94277 0,0 0,1.11872 0,1.11872 0,0 -0.1945,1.65957 -0.1945,1.65957 0,0 0.6669,6.42896 0.6669,6.42896 -0.01,1.34096 -1.5707,1.56139 -2.632,2.86348 -0.6298,0.77049 -1.3632,3.38767 -1.5429,4.41376 -0.1426,0.80567 -0.1167,2.00777 0.1611,2.77826 0.2482,0.69092 0.6946,1.13543 0.8836,1.85223 0,0 0.689,5.74178 0.689,5.74178 0,0 1.0261,3.14874 1.0261,3.14874 1.1743,0.24813 1.4743,1.95956 0.5556,2.22258 -0.2963,1.09094 -1.0742,1.80962 -1.7688,2.64495 -0.8965,1.07796 -0.7483,1.3558 -2.1726,2.44489 -0.9947,0.76123 -2.2671,1.03908 -2.7542,2.33561 0,0 -0.9372,3.4858 -0.9372,3.4858 -0.032,0.83165 0.2074,1.6003 0,2.42454 -0.3631,1.12428 -1.6207,1.98553 -1.6263,2.96349 0,0.9409 1.6559,3.34688 0.6094,5.18616 -0.9668,1.70027 -1.9578,2.50968 -3.1265,3.90623 0,0 -1.6855,2.20596 -1.6855,2.20596 -0.7335,0.77606 -2.3652,1.72253 -2.4671,2.77828 -1.2762,1.01499 -2.6171,3.77848 -2.9931,5.37137 0,0 -0.1964,1.63543 -0.1964,1.63543 0,0 -0.3297,1.88372 -0.3297,1.88372 -0.078,1.2595 0.489,1.55954 0.2797,2.35596 -0.4982,1.89481 -2.6542,2.23746 -3.6877,3.64884 -0.413,0.56491 -0.2741,1.30209 -0.3037,1.95962 0,0 -0.3279,3.51916 -0.3279,3.51916 0.061,2.09298 2.8524,3.80625 2.4079,5.927 0,0 -1.154,2.95606 -1.154,2.95606 -0.4297,0.86683 -0.789,0.87797 -1.0501,2.04485 0,0 -0.6539,4.81387 -0.6539,4.81387 0,0 -0.2833,1.6762 -0.2833,1.6762 -0.1279,1.1261 -0.565,3.8544 -1.0465,4.8008 -0.3612,0.7113 -2.0208,2.3227 -2.5987,2.9987 -1.1168,1.3114 -3.721,4.8231 -4.4786,6.2863 -0.6001,1.1577 -0.363,1.5448 -0.5667,2.5784 0,0 -0.7187,2.7764 -0.7187,2.7764 -0.1704,1.17791 0.043,1.69851 -0.2648,2.96351 1.1594,0.9057 -0.098,2.1744 -1.2799,1.6947 z m -88.1808,-108.19566 c 0,0 -0.1852,-0.18519 -0.1852,-0.18519 0,0 0,0.18519 0,0.18519 0,0 0.1852,0 0.1852,0 z m 46.6751,-57.04738 c 0,0 -0.1852,-0.18523 -0.1852,-0.18523 0,0 0,0.18523 0,0.18523 0,0 0.1852,0 0.1852,0 z m 45.3786,-191.14591 c 0,0 -0.1852,-0.18523 -0.1852,-0.18523 0,0 0,0.18523 0,0.18523 0,0 0.1852,0 0.1852,0 z M 510.92959,275.40222 c 0.2612,-0.36858 0.6409,-0.64637 0.978,-0.94458 -0.6631,-0.20006 -1.3113,-0.34268 -1.741,-0.94651 -0.4075,-0.57228 -0.2019,-1.18166 -0.5853,-1.40209 -0.9372,-0.54085 -1.2392,1.82814 -1.1928,2.3486 -1.0669,-0.0908 -2.945,-0.11113 -3.8897,0.37042 1.943,0.2334 4.1304,-0.17594 4.2601,2.40786 1.8392,-0.0649 1.4225,-0.77792 2.1707,-1.8337 z m 0.052,-37.98838 c 0,0 -0.1852,-0.18518 -0.1852,-0.18518 0,0 0,0.18518 0,0.18518 0,0 0.1852,0 0.1852,0 z m -14.2618,-78.90322 c 0,0 -0.1852,-0.18524 -0.1852,-0.18524 0,0 0,0.18524 0,0.18524 0,0 0.1852,0 0.1852,0 z"
       id="Selection"
       inkscape:connector-curvature="0"
       style="fill:#000000;stroke:#000000;stroke-width:0.18521889" />
    <polygon
       id="polygon3260"
       transform="matrix(0,-3.9434723,4.0812536,0,200.46869,794.00592)"
       points="81,59 75,53 88,53 88,47 75,47 81,41 73,41 64,50 73,59 "
       style="fill:#ffcc33;fill-opacity:1" />
    <flowRoot
       xml:space="preserve"
       id="flowRoot3329"
       style="font-size:10.40246105px;font-style:normal;font-variant:normal;font-weight:900;font-stretch:normal;text-align:start;line-height:125%;letter-spacing:0px;word-spacing:0px;writing-mode:lr-tb;text-anchor:start;fill:#cccccc;fill-opacity:1;stroke:none;font-family:Swiss 911;-inkscape-font-specification:Swiss 911 Heavy"
       transform="matrix(0,-7.4602296,7.4602296,0,-6628.4326,17509.546)"><flowRegion
         id="flowRegion3331"><rect
           id="rect3333"
           width="914.18805"
           height="95.964493"
           x="2254.6604"
           y="955.38751"
           style="font-size:10.40246105px;font-style:normal;font-variant:normal;font-weight:900;font-stretch:normal;text-align:start;line-height:125%;writing-mode:lr-tb;text-anchor:start;fill:#cccccc;font-family:Swiss 911;-inkscape-font-specification:Swiss 911 Heavy" /></flowRegion><flowPara
         id="flowPara3335"
         style="font-size:10.40246105px;font-style:normal;font-variant:normal;font-weight:900;font-stretch:normal;text-align:start;line-height:125%;writing-mode:lr-tb;text-anchor:start;fill:#cccccc;font-family:Swiss 911;-inkscape-font-specification:Swiss 911 Heavy">Freifunk Marburg</flowPara></flowRoot>    <circle
       id="circle3256-1"
       stroke-miterlimit="4"
       transform="matrix(0,-4.1181943,4.1585594,0,198.16687,804.60427)"
       r="29"
       cy="44"
       cx="74"
       sodipodi:cx="74"
       sodipodi:cy="44"
       sodipodi:rx="29"
       sodipodi:ry="29"
       style="opacity:0.35;fill:none;stroke:#de2c68;stroke-width:5.81192684;stroke-miterlimit:4;stroke-opacity:1;stroke-dasharray:none"
       d="M 103,44 C 103,60.016258 90.016258,73 74,73 57.983742,73 45,60.016258 45,44 45,27.983742 57.983742,15 74,15 c 16.016258,0 29,12.983742 29,29 z" />
    <circle
       id="circle3252-0"
       stroke-miterlimit="4"
       transform="matrix(0,-3.8437285,3.9188817,0,213.00919,788.36446)"
       r="22"
       cy="54"
       cx="36"
       sodipodi:cx="36"
       sodipodi:cy="54"
       sodipodi:rx="22"
       sodipodi:ry="22"
       style="opacity:0.35;fill:none;stroke:#de2c68;stroke-width:1.14544892;stroke-miterlimit:4;stroke-opacity:1;stroke-dasharray:none"
       d="M 58,54 C 58,66.150264 48.150264,76 36,76 23.849736,76 14,66.150264 14,54 14,41.849736 23.849736,32 36,32 c 12.150264,0 22,9.849736 22,22 z" />
    <circle
       id="circle3254-2"
       stroke-miterlimit="4"
       transform="matrix(0,-4.1492038,4.2201615,0,195.38904,806.47978)"
       r="22"
       cy="44"
       cx="74"
       sodipodi:cx="74"
       sodipodi:cy="44"
       sodipodi:rx="22"
       sodipodi:ry="22"
       style="opacity:0.35;fill:none;stroke:#de2c68;stroke-width:1.06239557;stroke-miterlimit:4;stroke-opacity:1;stroke-dasharray:none"
       d="M 96,44 C 96,56.150264 86.150264,66 74,66 61.849736,66 52,56.150264 52,44 52,31.849736 61.849736,22 74,22 c 12.150264,0 22,9.849736 22,22 z" />
    <flowRoot
       xml:space="preserve"
       id="flowRoot3148"
       style="font-size:40px;font-style:normal;font-weight:normal;line-height:125%;letter-spacing:0px;word-spacing:0px;fill:#000000;fill-opacity:1;stroke:none;font-family:Sans"><flowRegion
         id="flowRegion3150"><rect
           id="rect3152"
           width="1597.1428"
           height="385.71429"
           x="1165.7142"
           y="-299.06638" /></flowRegion><flowPara
         id="flowPara3154" /></flowRoot>  </g>
</svg>
